<?xml version="1.0" encoding="UTF-8"?><svg id="Camada_1" xmlns="http://www.w3.org/2000/svg" viewBox="0 0 278.47 96.71"><defs><style>.cls-1{fill:#fff;}.cls-2{fill:#ef7d00;}.cls-3{fill:none;stroke:#ef7d00;stroke-miterlimit:22.93;stroke-width:1.1px;}.cls-4{fill:#1d1d1b;}</style></defs><path class="cls-1" d="m248.45,90.84h-.84v-6.99h.84v6.99Zm-3.61-4.27c-.35,0-.6.14-.75.43-.15.28-.23.75-.23,1.41s.08,1.14.23,1.42c.15.28.4.42.75.42s.6-.14.75-.42c.15-.28.23-.75.23-1.41s-.07-1.15-.23-1.43c-.15-.28-.4-.42-.75-.42Zm-1.84,1.83c0-.89.15-1.53.44-1.93.29-.4.76-.6,1.4-.6s1.11.2,1.39.6c.29.4.43,1.05.43,1.95s-.14,1.55-.43,1.95c-.29.4-.75.6-1.39.6s-1.11-.2-1.4-.6c-.29-.4-.43-1.06-.43-1.96Zm-5.3,2.45v-6.99h.92v2.99h2.4v-2.99h.92v6.99h-.92v-3.2h-2.4v3.2h-.92Zm-6.77-1.49h.91c0,.3.08.52.22.68.14.16.34.23.6.23.24,0,.43-.06.58-.18.15-.12.22-.28.22-.47,0-.15-.05-.28-.16-.4-.11-.12-.29-.25-.54-.38l-.89-.46c-.32-.17-.55-.34-.68-.51-.13-.17-.2-.38-.2-.64,0-.42.16-.75.46-1.01.31-.26.72-.39,1.22-.39s.88.12,1.17.35c.29.23.43.55.43.95v.09h-.89c0-.24-.07-.43-.21-.56-.14-.14-.33-.2-.58-.2-.22,0-.39.06-.53.17-.14.12-.21.26-.21.44,0,.12.04.23.11.32.08.09.2.18.38.27l.8.4c.46.23.78.45.94.65.17.2.25.45.25.76,0,.45-.16.81-.47,1.08-.31.27-.73.4-1.26.4-.56,0-.98-.14-1.27-.41-.29-.27-.43-.67-.44-1.19Zm-2.61-2.79c-.35,0-.6.14-.75.43-.15.28-.23.75-.23,1.41s.08,1.14.23,1.42c.15.28.4.42.75.42s.6-.14.75-.42c.15-.28.23-.75.23-1.41s-.07-1.15-.23-1.43c-.15-.28-.4-.42-.75-.42Zm-1.84,1.83c0-.89.15-1.53.44-1.93.29-.4.76-.6,1.4-.6s1.11.2,1.39.6c.29.4.43,1.05.43,1.95s-.14,1.55-.43,1.95c-.29.4-.75.6-1.39.6s-1.11-.2-1.4-.6c-.29-.4-.43-1.06-.43-1.96Zm-6.13-1.86c.17-.24.36-.41.57-.52.21-.11.45-.16.72-.16.31,0,.57.07.79.22.22.14.37.34.46.6.14-.27.33-.47.55-.61.23-.14.49-.21.8-.21.4,0,.72.12.95.35.23.23.35.56.35.96v3.68h-.84v-3.11c0-.47-.06-.8-.18-.97-.12-.18-.33-.26-.63-.26-.33,0-.57.12-.72.37-.15.25-.23.64-.23,1.17v2.81h-.85v-3.11c0-.47-.06-.8-.18-.97-.12-.18-.33-.26-.62-.26-.33,0-.57.12-.73.37-.15.24-.23.63-.23,1.17v2.81h-.84v-4.1c0-.1,0-.22-.01-.35,0-.13-.02-.27-.04-.42h.85l.04.57Zm-4.53-.57v3.11c0,.47.06.79.18.97.12.18.33.26.63.26.33,0,.57-.12.72-.36.15-.24.23-.63.23-1.16v-2.82h.84v4.11c0,.11,0,.23.02.35,0,.13.02.26.03.42h-.85l-.04-.57c-.17.23-.36.41-.57.52-.21.11-.45.17-.72.17-.4,0-.72-.12-.95-.35-.23-.23-.35-.55-.35-.96v-3.68h.84Zm-5.15,3.39h.91c0,.3.08.52.22.68.14.16.34.23.6.23.24,0,.43-.06.58-.18.15-.12.22-.28.22-.47,0-.15-.05-.28-.16-.4-.11-.12-.29-.25-.54-.38l-.89-.46c-.32-.17-.55-.34-.68-.51-.13-.17-.2-.38-.2-.64,0-.42.16-.75.46-1.01.31-.26.72-.39,1.22-.39s.88.12,1.17.35c.29.23.43.55.43.95v.09h-.89c0-.24-.07-.43-.21-.56-.14-.14-.33-.2-.58-.2-.22,0-.39.06-.53.17-.14.12-.21.26-.21.44,0,.12.04.23.11.32.08.09.2.18.38.27l.8.4c.46.23.78.45.94.65.17.2.25.45.25.76,0,.45-.16.81-.47,1.08-.31.27-.73.4-1.26.4-.56,0-.98-.14-1.27-.41-.29-.27-.43-.67-.44-1.19Zm-1.72,1.49v-3.11c0-.47-.06-.8-.18-.97-.12-.18-.33-.26-.62-.26-.33,0-.57.12-.73.37-.15.24-.23.63-.23,1.17v2.81h-.84v-4.1c0-.1,0-.22-.01-.35,0-.13-.02-.27-.04-.42h.85l.04.57c.17-.24.36-.41.57-.52.21-.11.45-.16.72-.16.4,0,.72.12.95.35.23.24.35.56.35.96v3.68h-.85Zm-4.71,0v-6.99h.94v6.99h-.94Zm-3.34-1.52c-.03.51-.19.92-.5,1.21-.31.29-.72.44-1.25.44-.65,0-1.12-.2-1.4-.6-.28-.4-.42-1.06-.42-1.99,0-.88.15-1.51.44-1.91.29-.4.75-.6,1.39-.6s1.05.16,1.33.48c.28.32.42.82.42,1.5v.76h-2.71v.28c0,.48.08.83.23,1.05.15.22.4.33.73.33.26,0,.46-.08.62-.24.16-.16.26-.39.3-.69h.84Zm-2.71-1.35h1.88v-.42c0-.37-.08-.64-.23-.83-.15-.19-.37-.28-.67-.28-.33,0-.57.12-.73.37-.16.25-.24.63-.25,1.17Zm-3.66-1.42c-.31,0-.54.15-.7.45-.15.3-.23.76-.23,1.39,0,.73.07,1.23.22,1.52.15.28.4.42.75.42.33,0,.56-.15.71-.45.15-.3.22-.79.22-1.46s-.08-1.14-.23-1.43c-.16-.29-.4-.43-.75-.43Zm.98-.05v-2.65h.85v6.12c0,.25,0,.43,0,.55,0,.12.02.22.03.31h-.83l-.05-.47c-.16.2-.33.35-.52.45-.19.1-.41.14-.65.14-.55,0-.96-.2-1.21-.6-.26-.4-.39-1.03-.39-1.89s.13-1.55.39-1.98c.26-.43.66-.64,1.2-.64.25,0,.47.06.67.16.19.11.36.28.5.5Zm-6.86,1.79c-.67,0-1.14.08-1.41.23-.27.16-.4.42-.4.79,0,.24.07.44.22.6.15.16.33.24.55.24.33,0,.58-.13.77-.39.18-.26.27-.62.27-1.1v-.38Zm-1.65-1.05h-.89v-.1c0-.42.15-.74.44-.96.29-.22.72-.33,1.29-.33s.98.11,1.24.34c.27.23.4.59.4,1.07v2.27c0,.22,0,.45.02.66.01.22.04.43.06.64h-.83l-.06-.61c-.17.21-.36.38-.57.49-.22.11-.45.17-.69.17-.41,0-.75-.14-1.01-.41-.26-.28-.39-.63-.39-1.08,0-.56.18-.98.54-1.26.36-.28.9-.43,1.62-.43h.47v-.24c0-.38-.06-.65-.17-.79-.11-.15-.31-.22-.58-.22-.29,0-.52.06-.67.19-.15.12-.23.31-.23.55v.05Zm-2.77,3.6v-4.88h.81v4.88h-.81Zm0-6.1v-.89h.81v.89h-.81Zm-2.12,1.21l.08.64c.09-.24.24-.43.45-.56.21-.13.47-.2.78-.2.02,0,.04,0,.07,0,.03,0,.06,0,.08,0v.85s-.07,0-.11,0c-.05,0-.08,0-.1,0-.42,0-.72.09-.9.27-.18.18-.27.49-.27.92v2.96h-.84v-4.06s-.02-.23-.05-.56c-.01-.11-.02-.2-.03-.27h.84Zm-4.06-.63l.97-1.65h.95l-1.35,1.65h-.57Zm1.4,2.96c-.67,0-1.14.08-1.41.23-.27.16-.4.42-.4.79,0,.24.07.44.22.6.15.16.33.24.55.24.33,0,.58-.13.77-.39.18-.26.27-.62.27-1.1v-.38Zm-1.65-1.05h-.89v-.1c0-.42.15-.74.44-.96.29-.22.72-.33,1.29-.33s.98.11,1.24.34c.27.23.4.59.4,1.07v2.27c0,.22,0,.45.02.66.01.22.04.43.06.64h-.84l-.06-.61c-.17.21-.36.38-.57.49-.22.11-.45.17-.69.17-.41,0-.75-.14-1.01-.41-.26-.28-.39-.63-.39-1.08,0-.56.18-.98.54-1.26.36-.28.9-.43,1.62-.43h.47v-.24c0-.38-.06-.65-.17-.79-.11-.15-.31-.22-.58-.22-.29,0-.52.06-.67.19-.15.12-.23.31-.23.55v.05Zm-4.49-1.27v3.11c0,.47.06.79.18.97.12.18.33.26.63.26.33,0,.57-.12.72-.36.15-.24.23-.63.23-1.16v-2.82h.84v4.11c0,.11,0,.23.02.35,0,.13.02.26.03.42h-.85l-.04-.57c-.17.23-.36.41-.57.52-.21.11-.45.17-.72.17-.4,0-.72-.12-.95-.35-.23-.23-.35-.55-.35-.96v-3.68h.84Zm-2.56,3.22h.84c0,.56-.17.99-.48,1.3-.31.31-.73.46-1.28.46-.64,0-1.11-.2-1.4-.6-.29-.4-.43-1.05-.43-1.95s.14-1.55.43-1.95c.29-.4.75-.6,1.4-.6.52,0,.94.14,1.26.41.32.28.48.64.48,1.09v.11h-.83c0-.28-.08-.51-.23-.67-.15-.16-.36-.24-.63-.24-.37,0-.63.14-.79.41-.16.27-.23.75-.23,1.44s.08,1.14.23,1.42c.15.28.4.42.75.42.27,0,.49-.1.66-.29.17-.19.25-.45.26-.77Zm-3.56.13c-.03.51-.19.92-.5,1.21-.31.29-.72.44-1.25.44-.65,0-1.12-.2-1.4-.6-.28-.4-.42-1.06-.42-1.99,0-.88.15-1.51.44-1.91.29-.4.75-.6,1.39-.6s1.05.16,1.33.48c.28.32.42.82.42,1.5v.76h-2.71v.28c0,.48.08.83.23,1.05.15.22.4.33.73.33.26,0,.46-.08.62-.24.16-.16.26-.39.3-.69h.84Zm-2.71-1.35h1.88v-.42c0-.37-.08-.64-.23-.83-.15-.19-.37-.28-.67-.28-.33,0-.57.12-.73.37-.16.25-.24.63-.25,1.17Zm-5.31,4.72v-5.86c0-.25,0-.43,0-.55,0-.12-.02-.22-.03-.31h.86l.05.47c.15-.2.32-.35.51-.45.19-.1.4-.15.64-.15.55,0,.95.2,1.2.6.26.4.39,1.03.39,1.9s-.13,1.55-.39,1.98c-.26.43-.66.64-1.2.64-.25,0-.47-.06-.67-.17-.19-.11-.36-.28-.5-.5v2.4h-.85Zm.84-4.26c0,.63.08,1.1.24,1.39.16.29.41.44.76.44.31,0,.54-.15.69-.44.14-.29.22-.77.22-1.42,0-.72-.07-1.23-.22-1.51-.15-.28-.39-.42-.74-.42-.33,0-.57.15-.72.46-.15.31-.22.81-.22,1.5Zm-3.62-1.86c-.35,0-.6.14-.75.43-.15.28-.23.75-.23,1.41s.08,1.14.23,1.42c.15.28.4.42.75.42s.6-.14.75-.42c.15-.28.23-.75.23-1.41s-.07-1.15-.23-1.43c-.15-.28-.4-.42-.75-.42Zm-1.84,1.83c0-.89.15-1.53.44-1.93.29-.4.76-.6,1.4-.6s1.11.2,1.39.6c.29.4.43,1.05.43,1.95s-.14,1.55-.43,1.95c-.29.4-.75.6-1.39.6s-1.11-.2-1.4-.6c-.29-.4-.43-1.06-.43-1.96Zm-1.92-2.44l.08.64c.09-.24.24-.43.45-.56.21-.13.47-.2.78-.2.02,0,.04,0,.07,0,.03,0,.06,0,.08,0v.85s-.07,0-.11,0c-.05,0-.08,0-.1,0-.42,0-.72.09-.9.27-.18.18-.27.49-.27.92v2.96h-.83v-4.06s-.02-.23-.05-.56c-.01-.11-.02-.2-.03-.27h.84Zm-5.18,5.43h.95c0,.22.07.4.2.53.13.13.29.2.5.2.31,0,.52-.08.65-.24.12-.16.19-.46.19-.89v-.7c-.17.23-.36.4-.55.51-.19.11-.4.16-.62.16-.56,0-.97-.21-1.23-.63-.26-.42-.39-1.08-.39-1.99s.13-1.49.39-1.89c.26-.4.67-.6,1.22-.6.25,0,.47.05.66.15.19.1.36.25.52.45l.05-.47h.85c-.01.11-.03.23-.04.37,0,.14-.01.3-.01.49v4.27c0,.3-.02.54-.07.7-.04.16-.11.31-.21.43-.14.18-.33.31-.55.39-.22.08-.51.12-.86.12-.5,0-.9-.12-1.19-.35-.28-.24-.44-.57-.45-1.01Zm.56-3c0,.66.07,1.14.22,1.43.15.29.39.44.72.44.35,0,.61-.15.77-.45.17-.3.25-.77.25-1.42,0-.69-.08-1.18-.23-1.48-.16-.3-.41-.45-.76-.45s-.6.14-.75.42c-.15.28-.22.78-.22,1.51Zm-2.43,2.46l-.47-1.7h-2.47l-.48,1.7h-1l2.19-6.99h1.11l2.14,6.99h-1.01Zm-2.71-2.53h2l-.98-3.38-1.02,3.38Zm-5.55-.03c-.67,0-1.14.08-1.41.23-.27.16-.4.42-.4.79,0,.24.07.44.22.6.15.16.33.24.55.24.33,0,.58-.13.77-.39.18-.26.27-.62.27-1.1v-.38Zm-1.65-1.05h-.89v-.1c0-.42.15-.74.44-.96.29-.22.72-.33,1.29-.33s.98.11,1.24.34c.27.23.4.59.4,1.07v2.27c0,.22,0,.45.02.66.01.22.04.43.06.64h-.83l-.06-.61c-.16.21-.36.38-.57.49-.22.11-.45.17-.69.17-.41,0-.75-.14-1.01-.41-.26-.28-.39-.63-.39-1.08,0-.56.18-.98.54-1.26.36-.28.9-.43,1.62-.43h.47v-.24c0-.38-.06-.65-.17-.79-.11-.15-.31-.22-.58-.22-.29,0-.52.06-.67.19-.15.12-.23.31-.23.55v.05Zm-4.01,3.6l-1.52-4.88h.97l.77,2.81c.06.23.12.47.17.72.05.25.1.5.13.76.1-.44.22-.89.35-1.33.02-.07.04-.12.04-.14l.78-2.81h.88l-1.52,4.88h-1.04Zm-3.03,0v-4.88h.81v4.88h-.81Zm0-6.1v-.89h.81v.89h-.81Zm-1.74-.16v1.38h.97v.6h-.97v2.92c0,.26.04.44.12.54.08.1.23.15.44.15.08,0,.2,0,.38-.02h.03v.63c-.13.03-.26.05-.37.06-.11.01-.22.02-.32.02-.41,0-.7-.08-.87-.24-.17-.16-.25-.45-.25-.85v-3.21h-.74v-.6h.74v-.98l.83-.4Zm-3,3.7c-.67,0-1.14.08-1.41.23-.27.16-.4.42-.4.79,0,.24.07.44.22.6.15.16.33.24.55.24.33,0,.58-.13.77-.39.18-.26.27-.62.27-1.1v-.38Zm-1.65-1.05h-.89v-.1c0-.42.15-.74.44-.96.29-.22.72-.33,1.29-.33s.98.11,1.24.34c.27.23.4.59.4,1.07v2.27c0,.22,0,.45.02.66.01.22.04.43.06.64h-.83l-.06-.61c-.17.21-.36.38-.57.49-.22.11-.45.17-.69.17-.41,0-.75-.14-1.01-.41-.26-.28-.39-.63-.39-1.08,0-.56.18-.98.54-1.26.36-.28.9-.43,1.62-.43h.47v-.24c0-.38-.06-.65-.17-.79-.11-.15-.31-.22-.58-.22-.29,0-.52.06-.67.19-.15.12-.23.31-.23.55v.05Zm-2.86-1.28l.08.64c.09-.24.24-.43.45-.56.21-.13.47-.2.78-.2.02,0,.04,0,.07,0,.03,0,.06,0,.08,0v.85s-.07,0-.11,0c-.05,0-.08,0-.1,0-.42,0-.72.09-.9.27-.18.18-.27.49-.27.92v2.96h-.84v-4.06s-.02-.23-.05-.56c-.01-.11-.02-.2-.03-.27h.83Zm-1.68,3.36c-.03.51-.19.92-.5,1.21-.31.29-.72.44-1.25.44-.65,0-1.12-.2-1.4-.6-.28-.4-.42-1.06-.42-1.99,0-.88.15-1.51.44-1.91.29-.4.75-.6,1.39-.6s1.05.16,1.33.48c.28.32.42.82.42,1.5v.76h-2.71v.28c0,.48.08.83.23,1.05.15.22.4.33.73.33.26,0,.46-.08.62-.24.16-.16.26-.39.3-.69h.84Zm-2.71-1.35h1.88v-.42c0-.37-.08-.64-.23-.83-.15-.19-.37-.28-.67-.28-.33,0-.57.12-.73.37-.16.25-.24.63-.25,1.17Zm-5.31,4.72v-5.86c0-.25,0-.43,0-.55,0-.12-.02-.22-.03-.31h.86l.05.47c.15-.2.32-.35.51-.45.19-.1.4-.15.64-.15.55,0,.95.2,1.2.6.26.4.39,1.03.39,1.9s-.13,1.55-.39,1.98c-.26.43-.66.64-1.2.64-.25,0-.47-.06-.67-.17-.19-.11-.36-.28-.5-.5v2.4h-.85Zm.84-4.26c0,.63.08,1.1.24,1.39.16.29.41.44.76.44.31,0,.54-.15.69-.44.14-.29.22-.77.22-1.42,0-.72-.07-1.23-.22-1.51-.15-.28-.39-.42-.74-.42-.33,0-.57.15-.72.46-.15.31-.22.81-.22,1.5Zm-3.62-1.86c-.35,0-.6.14-.75.43-.15.28-.23.75-.23,1.41s.08,1.14.23,1.42c.15.28.4.42.75.42s.6-.14.75-.42c.15-.28.23-.75.23-1.41s-.07-1.15-.23-1.43c-.15-.28-.4-.42-.75-.42Zm-1.84,1.83c0-.89.15-1.53.44-1.93.29-.4.76-.6,1.4-.6s1.11.2,1.39.6c.29.4.43,1.05.43,1.95s-.14,1.55-.43,1.95c-.29.4-.75.6-1.39.6s-1.11-.2-1.4-.6c-.29-.4-.43-1.06-.43-1.96Zm-2.67-1.83c-.35,0-.6.14-.75.43-.15.28-.23.75-.23,1.41s.08,1.14.23,1.42c.15.28.4.42.75.42s.6-.14.75-.42c.15-.28.23-.75.23-1.41s-.07-1.15-.23-1.43c-.15-.28-.4-.42-.75-.42Zm-1.84,1.83c0-.89.15-1.53.44-1.93.29-.4.76-.6,1.4-.6s1.11.2,1.39.6c.29.4.43,1.05.43,1.95s-.14,1.55-.43,1.95c-.29.4-.75.6-1.39.6s-1.11-.2-1.4-.6c-.29-.4-.43-1.06-.43-1.96Zm-.93.29v.16c0,.66-.17,1.18-.53,1.55-.35.37-.84.56-1.47.56-.3,0-.58-.04-.83-.13-.26-.09-.47-.2-.62-.35-.27-.24-.45-.59-.56-1.05-.11-.46-.16-1.2-.16-2.23,0-.72.03-1.27.1-1.66.07-.39.18-.71.34-.97.16-.26.39-.46.68-.6.3-.14.65-.21,1.04-.21.64,0,1.12.18,1.46.53.33.36.5.87.5,1.55h-.98v-.1c0-.42-.08-.73-.25-.94-.17-.21-.42-.31-.75-.31-.21,0-.4.04-.56.12-.16.08-.29.2-.39.36-.1.16-.17.4-.21.72-.04.32-.06.93-.06,1.83,0,1.06.09,1.77.27,2.13.18.36.49.54.95.54.36,0,.63-.12.8-.35.17-.24.26-.6.26-1.08v-.08h.97Z"/><path class="cls-1" d="m270.8,88.28c-.67,0-1.14.08-1.41.23-.27.16-.4.42-.4.79,0,.24.07.44.22.6.15.16.33.24.55.24.33,0,.58-.13.77-.39.18-.26.27-.62.27-1.1v-.38Zm-1.65-1.05h-.89v-.1c0-.42.15-.74.44-.96.29-.22.72-.33,1.29-.33s.98.11,1.24.34c.27.23.4.59.4,1.07v2.27c0,.22,0,.45.02.66.01.22.04.43.06.64h-.84l-.06-.61c-.16.21-.36.38-.57.49-.22.11-.45.17-.69.17-.41,0-.75-.14-1.01-.41-.26-.28-.39-.63-.39-1.08,0-.56.18-.98.54-1.26.36-.28.9-.43,1.62-.43h.47v-.24c0-.38-.06-.65-.17-.79-.11-.15-.31-.22-.58-.22-.29,0-.52.06-.67.19-.15.12-.23.31-.23.55v.05Zm-2.86-1.28l.08.64c.09-.24.24-.43.45-.56.21-.13.47-.2.78-.2.02,0,.04,0,.07,0,.03,0,.06,0,.08,0v.85s-.07,0-.11,0c-.05,0-.08,0-.1,0-.42,0-.72.09-.9.27-.18.18-.27.49-.27.92v2.96h-.84v-4.06s-.02-.23-.05-.56c-.01-.11-.02-.2-.03-.27h.84Zm-5.38,4.88c.02-.11.03-.24.04-.38,0-.14.01-.3.01-.49v-6.12h.85v2.65c.14-.22.31-.39.5-.5.19-.11.42-.16.67-.16.54,0,.94.21,1.2.64.26.43.39,1.09.39,1.98s-.13,1.49-.4,1.9c-.26.41-.68.61-1.24.61-.26,0-.48-.05-.67-.14-.19-.1-.34-.24-.45-.43l-.11.44h-.79Zm1.87-4.29c-.34,0-.6.14-.75.43-.16.29-.24.75-.24,1.38,0,.7.07,1.2.22,1.5.15.31.39.46.72.46.35,0,.6-.14.75-.42.14-.28.22-.78.22-1.5,0-.64-.07-1.12-.22-1.42-.15-.3-.38-.45-.69-.45Zm-8.06-.02c.17-.24.36-.41.57-.52.21-.11.45-.16.72-.16.31,0,.57.07.79.22.22.14.37.34.46.6.14-.27.33-.47.55-.61.23-.14.49-.21.8-.21.4,0,.72.12.95.35.23.23.34.56.34.96v3.68h-.84v-3.11c0-.47-.06-.8-.18-.97-.12-.18-.33-.26-.63-.26-.33,0-.57.12-.72.37-.15.25-.23.64-.23,1.17v2.81h-.85v-3.11c0-.47-.06-.8-.18-.97-.12-.18-.33-.26-.62-.26-.33,0-.57.12-.73.37-.15.24-.23.63-.23,1.17v2.81h-.84v-4.1c0-.1,0-.22-.01-.35,0-.13-.02-.27-.04-.42h.85l.04.57Zm-2.75,1.75c-.67,0-1.14.08-1.41.23-.27.16-.4.42-.4.79,0,.24.07.44.22.6.15.16.33.24.55.24.33,0,.58-.13.77-.39.18-.26.27-.62.27-1.1v-.38Zm-1.65-1.05h-.89v-.1c0-.42.15-.74.44-.96.29-.22.72-.33,1.29-.33s.98.11,1.24.34c.27.23.4.59.4,1.07v2.27c0,.22,0,.45.02.66.01.22.04.43.06.64h-.84l-.06-.61c-.17.21-.36.38-.57.49-.22.11-.45.17-.69.17-.41,0-.75-.14-1.01-.41-.26-.28-.39-.63-.39-1.08,0-.56.18-.98.54-1.26.36-.28.9-.43,1.62-.43h.47v-.24c0-.38-.06-.65-.17-.79-.11-.15-.31-.22-.58-.22-.29,0-.52.06-.67.19-.15.12-.23.31-.23.55v.05Z"/><rect class="cls-2" x="21.13" y="22.78" width="54.6" height="55.98" transform="translate(-6.26 6.82) rotate(-7.57)"/><rect class="cls-1" x="21.99" y="20.67" width="54.6" height="55.98" transform="translate(-10.91 14.42) rotate(-15)"/><rect class="cls-3" x="21.99" y="20.67" width="54.6" height="55.98" transform="translate(-10.91 14.42) rotate(-15)"/><path class="cls-2" d="m268.7,69.06c-.55.8-1.3,1.42-2.25,1.88-.94.45-1.96.68-3.05.68-2.03,0-3.72-.7-5.07-2.08-1.35-1.39-2.03-3.1-2.03-5.14s.69-3.8,2.07-5.2c1.38-1.39,3.1-2.09,5.18-2.09,1.06,0,2.04.21,2.93.65.89.43,1.63,1.06,2.22,1.87v-2.21h1.73v13.83h-1.73v-2.19Zm0-4.82c0-1.47-.52-2.75-1.58-3.84-1.05-1.09-2.25-1.64-3.62-1.64-1.49,0-2.75.55-3.8,1.64-1.04,1.1-1.57,2.45-1.57,4.07s.52,2.84,1.56,3.9c1.04,1.06,2.29,1.59,3.75,1.59s2.64-.56,3.68-1.68c1.04-1.12,1.57-2.47,1.57-4.04Zm-16.1,7.01h-1.8v-13.83h1.68v1.6c.43-.62.91-1.06,1.42-1.35.51-.29,1.11-.44,1.79-.46v1.93c-1.1.1-1.89.43-2.37,1-.48.57-.72,1.49-.72,2.76v8.35Zm-16.3-6.78c0,1.48.52,2.76,1.57,3.86,1.04,1.09,2.25,1.64,3.61,1.64,1.49,0,2.75-.55,3.8-1.65,1.04-1.1,1.57-2.46,1.57-4.07,0-1.53-.52-2.83-1.56-3.89-1.04-1.06-2.28-1.59-3.74-1.59s-2.69.55-3.71,1.66c-1.02,1.1-1.53,2.46-1.53,4.05Zm0-11.53v6.8c.75-.9,1.56-1.56,2.45-1.99.89-.43,1.89-.64,2.98-.64,1.95,0,3.59.7,4.94,2.1,1.34,1.4,2.02,3.1,2.02,5.11s-.69,3.8-2.07,5.2c-1.37,1.4-3.1,2.1-5.18,2.1-1.02,0-1.96-.2-2.81-.61-.85-.41-1.63-1.02-2.34-1.85v2.1h-1.75v-18.32h1.75Zm-14.82,6.64c.56-.8,1.26-1.4,2.1-1.82.83-.42,1.77-.62,2.8-.62,1.88,0,3.25.56,4.1,1.69.85,1.13,1.28,2.95,1.28,5.44v6.98h-1.7v-7.35c0-1.83-.3-3.13-.91-3.91-.6-.78-1.59-1.16-2.95-1.16-.79,0-1.48.16-2.08.49-.6.32-1.07.79-1.43,1.39-.21.37-.36.81-.45,1.29-.09.48-.14,1.32-.14,2.52v6.73h-1.67v-7.75c0-1.59-.32-2.77-.97-3.53-.64-.76-1.63-1.14-2.97-1.14-.81,0-1.51.16-2.12.49-.61.32-1.09.79-1.44,1.39-.22.37-.37.81-.46,1.29-.09.48-.13,1.32-.13,2.52v6.73h-1.75v-13.83h1.75v1.57c.53-.61,1.15-1.07,1.87-1.38.72-.31,1.53-.47,2.43-.47,1.05,0,2.01.22,2.87.66.86.44,1.52,1.03,1.98,1.78Zm-15.4,9.48c-.55.8-1.3,1.42-2.25,1.88-.94.45-1.96.68-3.05.68-2.03,0-3.72-.7-5.07-2.08-1.35-1.39-2.03-3.1-2.03-5.14s.69-3.8,2.07-5.2c1.38-1.39,3.1-2.09,5.18-2.09,1.07,0,2.04.21,2.93.65.89.43,1.63,1.06,2.22,1.87v-2.21h1.73v13.83h-1.73v-2.19Zm0-4.82c0-1.47-.52-2.75-1.58-3.84-1.05-1.09-2.25-1.64-3.62-1.64-1.49,0-2.75.55-3.8,1.64-1.04,1.1-1.57,2.45-1.57,4.07s.52,2.84,1.56,3.9c1.04,1.06,2.29,1.59,3.75,1.59s2.64-.56,3.68-1.68c1.04-1.12,1.57-2.47,1.57-4.04Zm-16.34,7.01v-18.32h1.78v18.32h-1.78Zm-16.38-6.9c0-2.03.7-3.77,2.09-5.2,1.39-1.44,3.04-2.16,4.94-2.16,2.01,0,3.71.71,5.13,2.13,1.41,1.42,2.12,3.1,2.12,5.07,0,2.06-.69,3.82-2.07,5.28-1.38,1.46-3.06,2.19-5.03,2.19s-3.7-.71-5.08-2.14c-1.39-1.43-2.08-3.15-2.08-5.15Zm1.85-.03c0,1.6.51,2.93,1.52,4.01,1.01,1.08,2.28,1.61,3.79,1.61s2.73-.54,3.74-1.61c1.01-1.08,1.51-2.42,1.51-4.03s-.51-2.98-1.53-4.03c-1.02-1.05-2.31-1.58-3.89-1.58-1.41,0-2.62.54-3.63,1.62-1.01,1.08-1.52,2.42-1.52,4.01Zm-14.76,6.94h-1.8v-18.32h1.8v8.22h8.71v-8.22h1.8v18.32h-1.8v-8.35h-8.71v8.35Z"/><path class="cls-1" d="m252.28,42.93h3.8c.03,1.13.53,1.99,1.52,2.57.99.59,2.44.88,4.33.88,2.06,0,3.61-.25,4.66-.76,1.04-.51,1.56-1.27,1.56-2.28,0-1.22-1.7-2.13-5.1-2.73-.1-.01-.18-.03-.25-.04-4.17-.7-6.84-1.46-7.99-2.28-1.15-.82-1.73-2.04-1.73-3.69,0-1.76.79-3.14,2.37-4.13,1.59-.99,3.81-1.48,6.66-1.48s5.19.46,6.7,1.39c1.52.92,2.31,2.32,2.4,4.19h-3.64c-.15-1.06-.64-1.84-1.5-2.33-.85-.49-2.13-.74-3.81-.74-1.82,0-3.19.25-4.13.74-.94.49-1.41,1.21-1.41,2.15,0,1.2,1.97,2.14,5.91,2.85.18.03.34.05.44.08.15.03.39.07.71.13,3.09.55,4.97,1.04,5.65,1.46.82.49,1.42,1.08,1.81,1.75.39.68.58,1.47.58,2.38,0,1.96-.84,3.45-2.51,4.47-1.68,1.02-4.13,1.53-7.36,1.53s-5.64-.51-7.25-1.53c-1.61-1.02-2.42-2.54-2.43-4.58m-22.32-3.95c0,2.16.68,3.93,2.06,5.31,1.37,1.37,3.14,2.06,5.3,2.06s3.93-.69,5.31-2.07c1.37-1.38,2.06-3.14,2.06-5.29s-.69-3.94-2.07-5.33c-1.39-1.39-3.15-2.07-5.29-2.07s-3.93.69-5.3,2.07c-1.37,1.39-2.06,3.16-2.06,5.33Zm7.36-9.98c3.5,0,6.22.88,8.17,2.63,1.94,1.75,2.92,4.2,2.92,7.35s-.97,5.6-2.92,7.35c-1.95,1.75-4.67,2.63-8.17,2.63s-6.22-.88-8.17-2.63c-1.94-1.75-2.92-4.2-2.92-7.35s.97-5.6,2.92-7.35c1.95-1.75,4.67-2.63,8.17-2.63Zm-47.25,3.75c.78-1.21,1.78-2.13,2.99-2.76,1.21-.63,2.59-.95,4.15-.95,1.85,0,3.42.35,4.69,1.05,1.28.7,2.25,1.75,2.9,3.12,1.05-1.45,2.21-2.51,3.48-3.18,1.27-.66,2.77-1,4.48-1,2.56,0,4.55.68,5.96,2.04,1.42,1.37,2.13,3.27,2.13,5.72v11.7h-3.61v-10.71c0-2.06-.44-3.6-1.3-4.64-.87-1.04-2.16-1.57-3.86-1.57-1.93,0-3.5.59-4.71,1.79-1.21,1.19-1.82,2.73-1.82,4.62v10.51h-3.64v-10.71c0-2.06-.44-3.6-1.3-4.64-.87-1.04-2.16-1.57-3.85-1.57-1.93,0-3.5.59-4.72,1.79-1.21,1.19-1.82,2.73-1.82,4.62v10.51h-3.72v-12.9c0-.8-.03-1.73-.08-2.77-.05-1.04-.13-2.17-.22-3.38h3.65l.22,3.3Zm-11.01-3.3v12.9c0,.79.03,1.71.08,2.76.05,1.05.13,2.18.22,3.39h-3.67l-.22-3.3c-.97,1.28-2.09,2.21-3.36,2.8-1.27.59-2.78.88-4.53.88-3.05,0-5.29-.72-6.74-2.16-1.44-1.44-2.16-3.69-2.16-6.75v-10.51h3.64v10.66c0,2.09.49,3.66,1.49,4.7.99,1.04,2.47,1.57,4.45,1.57s3.71-.61,5.04-1.83c1.33-1.21,2.01-2.76,2.01-4.62v-10.47h3.76Zm-45.39,13.47h3.79c.03,1.13.53,1.99,1.52,2.57.99.59,2.44.88,4.33.88,2.06,0,3.61-.25,4.66-.76,1.04-.51,1.56-1.27,1.56-2.28,0-1.22-1.7-2.13-5.1-2.73-.1-.01-.18-.03-.25-.04-4.17-.7-6.84-1.46-7.99-2.28-1.15-.82-1.73-2.04-1.73-3.69,0-1.76.79-3.14,2.37-4.13,1.59-.99,3.81-1.48,6.66-1.48s5.19.46,6.7,1.39c1.52.92,2.31,2.32,2.4,4.19h-3.64c-.15-1.06-.64-1.84-1.5-2.33-.85-.49-2.13-.74-3.81-.74-1.82,0-3.19.25-4.13.74-.94.49-1.41,1.21-1.41,2.15,0,1.2,1.97,2.14,5.91,2.85.18.03.34.05.44.08.15.03.39.07.71.13,3.09.55,4.97,1.04,5.65,1.46.82.49,1.42,1.08,1.81,1.75.39.68.58,1.47.58,2.38,0,1.96-.84,3.45-2.51,4.47-1.68,1.02-4.13,1.53-7.36,1.53s-5.64-.51-7.25-1.53c-1.61-1.02-2.42-2.54-2.43-4.58Zm-25.92,5.58v-12.9c0-.8-.03-1.73-.08-2.77-.05-1.04-.13-2.17-.22-3.38h3.65l.22,3.3c.94-1.28,2.07-2.22,3.4-2.81,1.32-.6,2.95-.9,4.89-.9,2.84,0,4.96.68,6.38,2.04,1.41,1.37,2.11,3.42,2.11,6.15v11.27h-3.64v-10.71c0-2.14-.46-3.71-1.39-4.71-.92-1-2.37-1.5-4.33-1.5-2.2,0-3.96.58-5.28,1.74-1.32,1.16-1.98,2.72-1.98,4.67v10.51h-3.72Zm-11.95,0v-27.32h3.87v27.32h-3.87Z"/><path class="cls-4" d="m53.94,47.41c0-3.01-2.41-5.45-5.39-5.45s-5.39,2.44-5.39,5.45,2.41,5.45,5.39,5.45,5.39-2.44,5.39-5.45"/><polygon class="cls-2" points="38.27 48.1 13.02 38.42 13.02 58.61 38.3 50.28 38.3 48.02 38.27 48.1"/><polygon class="cls-4" points="38.3 44.66 38.3 48.02 41.14 40.61 11.01 29.06 8.14 36.55 13.02 38.42 13.02 35.29 38.3 44.66"/><polygon class="cls-2" points="45.94 36.39 55.62 11.14 35.43 11.14 43.76 36.43 46.03 36.43 45.94 36.39"/><polygon class="cls-4" points="49.38 36.43 46.03 36.43 53.43 39.27 64.98 9.14 57.49 6.27 55.62 11.14 58.75 11.14 49.38 36.43"/><polygon class="cls-2" points="60.46 39.57 85.71 49.25 85.71 29.06 60.42 37.39 60.42 39.65 60.46 39.57"/><polygon class="cls-4" points="60.42 43.01 60.42 39.65 57.59 47.06 87.71 58.61 90.59 51.12 85.71 49.25 85.71 52.38 60.42 43.01"/><polygon class="cls-2" points="54.48 59.43 44.79 84.68 64.98 84.68 56.65 59.39 54.39 59.39 54.48 59.43"/><polygon class="cls-4" points="51.03 59.39 54.39 59.39 46.98 56.55 35.43 86.68 42.92 89.55 44.79 84.68 41.67 84.68 51.03 59.39"/><rect class="cls-1" x="94.88" y="76.33" width="176.97" height="1.1"/></svg>