<?xml version="1.0" encoding="utf-8"?>
<!-- Generator: Adobe Illustrator 27.2.0, SVG Export Plug-In . SVG Version: 6.00 Build 0)  -->
<svg version="1.1" id="Camada_1" xmlns="http://www.w3.org/2000/svg" xmlns:xlink="http://www.w3.org/1999/xlink" x="0px" y="0px"
	 viewBox="0 0 498 171" style="enable-background:new 0 0 498 171;" xml:space="preserve">
<style type="text/css">
	.st0{clip-path:url(#SVGID_00000055665248213367008920000002376546856591163018_);}
	.st1{clip-path:url(#SVGID_00000009569637625948045580000010542464046201020291_);}
	
		.st2{clip-path:url(#SVGID_00000073701746080905737350000016897869096053564290_);fill-rule:evenodd;clip-rule:evenodd;fill:#EF781A;}
	
		.st3{clip-path:url(#SVGID_00000039107138584140339040000003882660110010044552_);fill-rule:evenodd;clip-rule:evenodd;fill:#FFFFFF;}
	
		.st4{clip-path:url(#SVGID_00000032617626882424463290000003475628180589357448_);fill:none;stroke:#EF781A;stroke-width:1.101;stroke-miterlimit:22.9253;}
	.st5{clip-path:url(#SVGID_00000114054775470289299880000006467198454827401609_);fill:#EF781A;}
	.st6{clip-path:url(#SVGID_00000092458148773684518850000017461355798820291458_);}
	.st7{clip-path:url(#SVGID_00000117654511395000386010000000211586219503484601_);}
	.st8{clip-path:url(#SVGID_00000132088532028941211900000013151193322420266137_);fill:#EF781A;}
	.st9{clip-path:url(#SVGID_00000165218921866453460730000016267082720486932655_);}
	.st10{clip-path:url(#SVGID_00000164492331964219728890000018117305632639759256_);fill:#EF781A;}
	.st11{clip-path:url(#SVGID_00000155143321291655224760000004561946458547150486_);}
	.st12{clip-path:url(#SVGID_00000007410167178665113610000004573330786895893935_);fill:#EF781A;}
	.st13{clip-path:url(#SVGID_00000180335714825079932090000002908268402929064127_);}
	.st14{clip-path:url(#SVGID_00000113320529340942881570000000298550873977229501_);fill:#EF781A;}
	.st15{clip-path:url(#SVGID_00000028286169796014231410000011306574461444382092_);}
	.st16{clip-path:url(#SVGID_00000017475206226922414480000006779896906763163777_);}
</style>
<g>
	<g>
		<defs>
			<rect id="SVGID_1_" x="-42" y="-180.4" width="595.3" height="540.6"/>
		</defs>
		<clipPath id="SVGID_00000167377324265239749280000002616276593816652473_">
			<use xlink:href="#SVGID_1_"  style="overflow:visible;"/>
		</clipPath>
		<path style="clip-path:url(#SVGID_00000167377324265239749280000002616276593816652473_);" d="M447.1,160.3h-1.5v-12.9h1.5V160.3z
			 M440.5,152.5c-0.6,0-1.1,0.3-1.4,0.8c-0.3,0.5-0.4,1.4-0.4,2.6c0,1.2,0.1,2.1,0.4,2.6s0.7,0.8,1.4,0.8c0.6,0,1.1-0.3,1.4-0.8
			c0.3-0.5,0.4-1.4,0.4-2.6c0-1.2-0.1-2.1-0.4-2.6C441.6,152.7,441.1,152.5,440.5,152.5 M437.1,155.8c0-1.6,0.3-2.8,0.8-3.5
			s1.4-1.1,2.6-1.1s2,0.4,2.6,1.1s0.8,1.9,0.8,3.6s-0.3,2.8-0.8,3.6c-0.5,0.7-1.4,1.1-2.6,1.1c-1.2,0-2-0.4-2.6-1.1
			C437.4,158.7,437.1,157.5,437.1,155.8 M427.4,160.3v-12.9h1.7v5.5h4.4v-5.5h1.7v12.9h-1.7v-5.9h-4.4v5.9H427.4z M414.9,157.6h1.7
			c0,0.5,0.1,1,0.4,1.2s0.6,0.4,1.1,0.4c0.4,0,0.8-0.1,1.1-0.3s0.4-0.5,0.4-0.9c0-0.3-0.1-0.5-0.3-0.7c-0.2-0.2-0.5-0.5-1-0.7
			l-1.6-0.8c-0.6-0.3-1-0.6-1.2-0.9s-0.4-0.7-0.4-1.2c0-0.8,0.3-1.4,0.9-1.9c0.6-0.5,1.3-0.7,2.2-0.7c0.9,0,1.6,0.2,2.1,0.6
			c0.5,0.4,0.8,1,0.8,1.8v0.2h-1.6c0-0.4-0.1-0.8-0.4-1c-0.3-0.2-0.6-0.4-1.1-0.4c-0.4,0-0.7,0.1-1,0.3c-0.2,0.2-0.4,0.5-0.4,0.8
			c0,0.2,0.1,0.4,0.2,0.6c0.1,0.2,0.4,0.3,0.7,0.5l1.5,0.7c0.9,0.4,1.4,0.8,1.7,1.2s0.5,0.8,0.5,1.4c0,0.8-0.3,1.5-0.9,2
			s-1.4,0.7-2.3,0.7c-1,0-1.8-0.2-2.3-0.8C415.2,159.3,414.9,158.5,414.9,157.6 M410.1,152.5c-0.6,0-1.1,0.3-1.4,0.8
			c-0.3,0.5-0.4,1.4-0.4,2.6c0,1.2,0.1,2.1,0.4,2.6s0.7,0.8,1.4,0.8c0.6,0,1.1-0.3,1.4-0.8c0.3-0.5,0.4-1.4,0.4-2.6
			c0-1.2-0.1-2.1-0.4-2.6C411.2,152.7,410.8,152.5,410.1,152.5 M406.8,155.8c0-1.6,0.3-2.8,0.8-3.5s1.4-1.1,2.6-1.1s2,0.4,2.6,1.1
			s0.8,1.9,0.8,3.6s-0.3,2.8-0.8,3.6s-1.4,1.1-2.6,1.1c-1.2,0-2-0.4-2.6-1.1C407,158.7,406.8,157.5,406.8,155.8 M395.5,152.4
			c0.3-0.4,0.7-0.8,1-1s0.8-0.3,1.3-0.3c0.6,0,1,0.1,1.4,0.4s0.7,0.6,0.9,1.1c0.3-0.5,0.6-0.9,1-1.1c0.4-0.2,0.9-0.4,1.5-0.4
			c0.7,0,1.3,0.2,1.7,0.6c0.4,0.4,0.6,1,0.6,1.8v6.8h-1.5v-5.7c0-0.9-0.1-1.5-0.3-1.8s-0.6-0.5-1.1-0.5c-0.6,0-1,0.2-1.3,0.7
			c-0.3,0.5-0.4,1.2-0.4,2.1v5.2h-1.5v-5.7c0-0.9-0.1-1.5-0.3-1.8c-0.2-0.3-0.6-0.5-1.1-0.5c-0.6,0-1,0.2-1.3,0.7
			c-0.3,0.5-0.4,1.2-0.4,2.1v5.2h-1.5v-7.5c0-0.2,0-0.4,0-0.6c0-0.2,0-0.5-0.1-0.8h1.6L395.5,152.4z M387.2,151.4v5.7
			c0,0.9,0.1,1.5,0.3,1.8s0.6,0.5,1.1,0.5c0.6,0,1-0.2,1.3-0.7s0.4-1.2,0.4-2.1v-5.2h1.5v7.5c0,0.2,0,0.4,0,0.6s0,0.5,0.1,0.8h-1.6
			l-0.1-1c-0.3,0.4-0.7,0.8-1,1s-0.8,0.3-1.3,0.3c-0.7,0-1.3-0.2-1.8-0.6s-0.6-1-0.6-1.8v-6.8L387.2,151.4L387.2,151.4z
			 M377.7,157.6h1.7c0,0.5,0.1,1,0.4,1.2s0.6,0.4,1.1,0.4c0.4,0,0.8-0.1,1.1-0.3s0.4-0.5,0.4-0.9c0-0.3-0.1-0.5-0.3-0.7
			c-0.2-0.2-0.5-0.5-1-0.7l-1.6-0.8c-0.6-0.3-1-0.6-1.2-0.9s-0.4-0.7-0.4-1.2c0-0.8,0.3-1.4,0.9-1.9c0.6-0.5,1.3-0.7,2.2-0.7
			c0.9,0,1.6,0.2,2.1,0.6c0.5,0.4,0.8,1,0.8,1.8v0.2h-1.6c0-0.4-0.1-0.8-0.4-1c-0.3-0.2-0.6-0.4-1.1-0.4c-0.4,0-0.7,0.1-1,0.3
			c-0.2,0.2-0.4,0.5-0.4,0.8c0,0.2,0.1,0.4,0.2,0.6c0.1,0.2,0.4,0.3,0.7,0.5l1.5,0.7c0.9,0.4,1.4,0.8,1.7,1.2
			c0.3,0.4,0.5,0.8,0.5,1.4c0,0.8-0.3,1.5-0.9,2s-1.4,0.7-2.3,0.7c-1,0-1.8-0.2-2.3-0.8C378,159.3,377.7,158.5,377.7,157.6
			 M374.5,160.3v-5.7c0-0.9-0.1-1.5-0.3-1.8c-0.2-0.3-0.6-0.5-1.1-0.5c-0.6,0-1,0.2-1.3,0.7c-0.3,0.5-0.4,1.2-0.4,2.1v5.2h-1.5v-7.5
			c0-0.2,0-0.4,0-0.6c0-0.2,0-0.5-0.1-0.8h1.6l0.1,1c0.3-0.4,0.7-0.8,1-1s0.8-0.3,1.3-0.3c0.7,0,1.3,0.2,1.8,0.6s0.6,1,0.6,1.8v6.8
			L374.5,160.3L374.5,160.3z M365.9,147.5h1.7v12.9h-1.7V147.5z M359.7,157.5c0,1-0.4,1.7-0.9,2.2c-0.6,0.5-1.3,0.8-2.3,0.8
			c-1.2,0-2-0.4-2.6-1.1c-0.5-0.7-0.8-2-0.8-3.7c0-1.6,0.3-2.8,0.8-3.5c0.5-0.7,1.4-1.1,2.5-1.1c1.1,0,1.9,0.3,2.4,0.9
			c0.5,0.6,0.8,1.5,0.8,2.8v1.4h-5v0.5c0,0.9,0.1,1.5,0.4,1.9c0.3,0.4,0.7,0.6,1.4,0.6c0.5,0,0.9-0.1,1.1-0.4
			c0.3-0.3,0.5-0.7,0.5-1.3L359.7,157.5L359.7,157.5z M354.8,155h3.5v-0.8c0-0.7-0.1-1.2-0.4-1.5s-0.7-0.5-1.2-0.5
			c-0.6,0-1,0.2-1.4,0.7C354.9,153.3,354.8,154.1,354.8,155 M348,152.4c-0.6,0-1,0.3-1.3,0.8s-0.4,1.4-0.4,2.5
			c0,1.3,0.1,2.3,0.4,2.8c0.3,0.5,0.7,0.8,1.4,0.8c0.6,0,1-0.3,1.3-0.8c0.3-0.5,0.4-1.5,0.4-2.7c0-1.2-0.1-2.1-0.4-2.6
			C349.1,152.7,348.7,152.4,348,152.4 M349.8,152.3v-4.9h1.5v11.2c0,0.5,0,0.8,0,1c0,0.2,0,0.4,0,0.6h-1.5l-0.1-0.9
			c-0.3,0.4-0.6,0.6-1,0.8c-0.4,0.2-0.8,0.3-1.2,0.3c-1,0-1.8-0.4-2.2-1.1s-0.7-1.9-0.7-3.5c0-1.6,0.2-2.9,0.7-3.6
			c0.5-0.8,1.2-1.2,2.2-1.2c0.5,0,0.9,0.1,1.2,0.3C349.3,151.6,349.6,151.9,349.8,152.3 M337.2,155.6c-1.2,0-2.1,0.1-2.6,0.4
			c-0.5,0.3-0.7,0.8-0.7,1.5c0,0.4,0.1,0.8,0.4,1.1s0.6,0.4,1,0.4c0.6,0,1.1-0.2,1.4-0.7c0.3-0.5,0.5-1.1,0.5-2V155.6z M334.2,153.7
			h-1.6v-0.2c0-0.8,0.3-1.4,0.8-1.8s1.3-0.6,2.4-0.6c1,0,1.8,0.2,2.3,0.6s0.7,1.1,0.7,2v4.2c0,0.4,0,0.8,0,1.2s0.1,0.8,0.1,1.2h-1.5
			l-0.1-1.1c-0.3,0.4-0.6,0.7-1.1,0.9c-0.4,0.2-0.8,0.3-1.3,0.3c-0.8,0-1.4-0.2-1.9-0.8c-0.5-0.5-0.7-1.2-0.7-2c0-1,0.3-1.8,1-2.3
			c0.7-0.5,1.7-0.8,3-0.8h0.9v-0.5c0-0.7-0.1-1.2-0.3-1.5s-0.6-0.4-1.1-0.4c-0.5,0-1,0.1-1.2,0.4S334.2,153.2,334.2,153.7
			L334.2,153.7L334.2,153.7z M329.1,151.4h1.5v9h-1.5V151.4z M329.1,147.5h1.5v1.6h-1.5V147.5z M325.2,151.3l0.1,1.2
			c0.2-0.5,0.4-0.8,0.8-1c0.4-0.2,0.9-0.4,1.4-0.4c0,0,0.1,0,0.1,0c0.1,0,0.1,0,0.1,0v1.6c0,0-0.1,0-0.2,0s-0.1,0-0.2,0
			c-0.8,0-1.3,0.2-1.6,0.5s-0.5,0.9-0.5,1.7v5.4h-1.5v-7.5c0-0.1,0-0.4-0.1-1c0-0.2,0-0.4,0-0.5L325.2,151.3L325.2,151.3z
			 M317.8,150.2l1.8-3h1.8l-2.5,3H317.8z M320.3,155.6c-1.2,0-2.1,0.1-2.6,0.4c-0.5,0.3-0.7,0.8-0.7,1.5c0,0.4,0.1,0.8,0.4,1.1
			s0.6,0.4,1,0.4c0.6,0,1.1-0.2,1.4-0.7c0.3-0.5,0.5-1.1,0.5-2V155.6z M317.3,153.7h-1.6v-0.2c0-0.8,0.3-1.4,0.8-1.8
			s1.3-0.6,2.4-0.6c1,0,1.8,0.2,2.3,0.6s0.7,1.1,0.7,2v4.2c0,0.4,0,0.8,0,1.2s0.1,0.8,0.1,1.2h-1.5l-0.1-1.1
			c-0.3,0.4-0.6,0.7-1.1,0.9c-0.4,0.2-0.8,0.3-1.3,0.3c-0.8,0-1.4-0.2-1.9-0.8c-0.5-0.5-0.7-1.2-0.7-2c0-1,0.3-1.8,1-2.3
			c0.7-0.5,1.7-0.8,3-0.8h0.9v-0.5c0-0.7-0.1-1.2-0.3-1.5s-0.6-0.4-1.1-0.4c-0.5,0-1,0.1-1.2,0.4S317.3,153.2,317.3,153.7
			L317.3,153.7L317.3,153.7z M309,151.4v5.7c0,0.9,0.1,1.5,0.3,1.8s0.6,0.5,1.1,0.5c0.6,0,1-0.2,1.3-0.7s0.4-1.2,0.4-2.1v-5.2h1.5
			v7.5c0,0.2,0,0.4,0,0.6s0,0.5,0.1,0.8h-1.6l-0.1-1c-0.3,0.4-0.7,0.8-1,1s-0.8,0.3-1.3,0.3c-0.7,0-1.3-0.2-1.8-0.6s-0.6-1-0.6-1.8
			v-6.8L309,151.4L309,151.4z M304.3,157.3h1.5c0,1-0.3,1.8-0.9,2.4c-0.6,0.6-1.4,0.9-2.4,0.9c-1.2,0-2-0.4-2.6-1.1
			s-0.8-1.9-0.8-3.6c0-1.6,0.3-2.9,0.8-3.6s1.4-1.1,2.6-1.1c1,0,1.7,0.2,2.3,0.8c0.6,0.5,0.9,1.2,0.9,2v0.2h-1.5
			c0-0.5-0.1-0.9-0.4-1.2s-0.7-0.4-1.2-0.4c-0.7,0-1.2,0.2-1.5,0.8c-0.3,0.5-0.4,1.4-0.4,2.6c0,1.2,0.1,2.1,0.4,2.6
			c0.3,0.5,0.7,0.8,1.4,0.8c0.5,0,0.9-0.2,1.2-0.5C304.2,158.3,304.3,157.9,304.3,157.3 M297.8,157.5c0,1-0.4,1.7-0.9,2.2
			c-0.6,0.5-1.3,0.8-2.3,0.8c-1.2,0-2-0.4-2.6-1.1c-0.5-0.7-0.8-2-0.8-3.7c0-1.6,0.3-2.8,0.8-3.5c0.5-0.7,1.4-1.1,2.5-1.1
			c1.1,0,1.9,0.3,2.4,0.9c0.5,0.6,0.8,1.5,0.8,2.8v1.4h-5v0.5c0,0.9,0.1,1.5,0.4,1.9c0.3,0.4,0.7,0.6,1.4,0.6c0.5,0,0.9-0.1,1.1-0.4
			c0.3-0.3,0.5-0.7,0.5-1.3L297.8,157.5L297.8,157.5z M292.8,155h3.5v-0.8c0-0.7-0.1-1.2-0.4-1.5s-0.7-0.5-1.2-0.5
			c-0.6,0-1,0.2-1.4,0.7C293,153.3,292.8,154.1,292.8,155 M283,163.7v-10.8c0-0.5,0-0.8,0-1c0-0.2,0-0.4-0.1-0.6h1.6l0.1,0.9
			c0.3-0.4,0.6-0.6,0.9-0.8s0.7-0.3,1.2-0.3c1,0,1.7,0.4,2.2,1.1s0.7,1.9,0.7,3.5c0,1.6-0.2,2.9-0.7,3.6c-0.5,0.8-1.2,1.2-2.2,1.2
			c-0.5,0-0.9-0.1-1.2-0.3c-0.4-0.2-0.7-0.5-0.9-0.9v4.4H283z M284.6,155.9c0,1.2,0.1,2,0.5,2.5c0.3,0.5,0.8,0.8,1.4,0.8
			c0.6,0,1-0.3,1.3-0.8c0.3-0.5,0.4-1.4,0.4-2.6c0-1.3-0.1-2.2-0.4-2.8s-0.7-0.8-1.4-0.8c-0.6,0-1,0.3-1.3,0.9
			C284.7,153.7,284.6,154.6,284.6,155.9 M277.9,152.5c-0.6,0-1.1,0.3-1.4,0.8c-0.3,0.5-0.4,1.4-0.4,2.6c0,1.2,0.1,2.1,0.4,2.6
			s0.7,0.8,1.4,0.8c0.6,0,1.1-0.3,1.4-0.8c0.3-0.5,0.4-1.4,0.4-2.6c0-1.2-0.1-2.1-0.4-2.6C279,152.7,278.6,152.5,277.9,152.5
			 M274.6,155.8c0-1.6,0.3-2.8,0.8-3.5s1.4-1.1,2.6-1.1s2,0.4,2.6,1.1s0.8,1.9,0.8,3.6s-0.3,2.8-0.8,3.6s-1.4,1.1-2.6,1.1
			c-1.2,0-2-0.4-2.6-1.1C274.8,158.7,274.6,157.5,274.6,155.8 M271,151.3l0.1,1.2c0.2-0.5,0.4-0.8,0.8-1c0.4-0.2,0.9-0.4,1.4-0.4
			c0,0,0.1,0,0.1,0c0.1,0,0.1,0,0.1,0v1.6c0,0-0.1,0-0.2,0s-0.1,0-0.2,0c-0.8,0-1.3,0.2-1.6,0.5s-0.5,0.9-0.5,1.7v5.4h-1.5v-7.5
			c0-0.1,0-0.4-0.1-1c0-0.2,0-0.4,0-0.5L271,151.3L271,151.3z M261.5,161.3h1.8c0,0.4,0.1,0.7,0.4,1c0.2,0.2,0.5,0.4,0.9,0.4
			c0.6,0,1-0.1,1.2-0.4s0.4-0.8,0.4-1.6v-1.3c-0.3,0.4-0.6,0.7-1,0.9c-0.4,0.2-0.7,0.3-1.1,0.3c-1,0-1.8-0.4-2.3-1.2s-0.7-2-0.7-3.6
			c0-1.6,0.2-2.7,0.7-3.5c0.5-0.7,1.2-1.1,2.2-1.1c0.5,0,0.9,0.1,1.2,0.3s0.7,0.5,1,0.8l0.1-0.9h1.5c0,0.2,0,0.4-0.1,0.7
			c0,0.2,0,0.5,0,0.9v7.9c0,0.6,0,1-0.1,1.3c-0.1,0.3-0.2,0.6-0.4,0.8c-0.3,0.3-0.6,0.6-1,0.7s-0.9,0.2-1.6,0.2
			c-0.9,0-1.7-0.2-2.2-0.6C261.8,162.7,261.5,162.1,261.5,161.3 M262.5,155.8c0,1.2,0.1,2.1,0.4,2.6s0.7,0.8,1.3,0.8
			c0.6,0,1.1-0.3,1.4-0.8c0.3-0.5,0.5-1.4,0.5-2.6c0-1.3-0.1-2.2-0.4-2.7c-0.3-0.5-0.8-0.8-1.4-0.8c-0.6,0-1.1,0.3-1.4,0.8
			C262.7,153.5,262.5,154.5,262.5,155.8 M258.1,160.3l-0.9-3.1h-4.5l-0.9,3.1H250l4-12.9h2l3.9,12.9H258.1z M253.1,155.7h3.7
			l-1.8-6.2L253.1,155.7z M242.9,155.6c-1.2,0-2.1,0.1-2.6,0.4c-0.5,0.3-0.7,0.8-0.7,1.5c0,0.4,0.1,0.8,0.4,1.1s0.6,0.4,1,0.4
			c0.6,0,1.1-0.2,1.4-0.7c0.3-0.5,0.5-1.1,0.5-2V155.6z M239.9,153.7h-1.6v-0.2c0-0.8,0.3-1.4,0.8-1.8s1.3-0.6,2.4-0.6
			c1,0,1.8,0.2,2.3,0.6s0.7,1.1,0.7,2v4.2c0,0.4,0,0.8,0,1.2s0.1,0.8,0.1,1.2H243l-0.1-1.1c-0.3,0.4-0.6,0.7-1.1,0.9
			c-0.4,0.2-0.8,0.3-1.3,0.3c-0.8,0-1.4-0.2-1.9-0.8c-0.5-0.5-0.7-1.2-0.7-2c0-1,0.3-1.8,1-2.3c0.7-0.5,1.7-0.8,3-0.8h0.9v-0.5
			c0-0.7-0.1-1.2-0.3-1.5c-0.2-0.3-0.6-0.4-1.1-0.4c-0.5,0-1,0.1-1.2,0.4S239.9,153.2,239.9,153.7L239.9,153.7L239.9,153.7z
			 M232.5,160.3l-2.8-9h1.8l1.4,5.2c0.1,0.4,0.2,0.9,0.3,1.3c0.1,0.5,0.2,0.9,0.2,1.4c0.2-0.8,0.4-1.6,0.6-2.4
			c0-0.1,0.1-0.2,0.1-0.3l1.4-5.2h1.6l-2.8,9H232.5z M226.9,151.4h1.5v9h-1.5V151.4z M226.9,147.5h1.5v1.6h-1.5V147.5z M223.7,148.8
			v2.5h1.8v1.1h-1.8v5.4c0,0.5,0.1,0.8,0.2,1c0.1,0.2,0.4,0.3,0.8,0.3c0.1,0,0.4,0,0.7,0h0l0,1.2c-0.2,0-0.5,0.1-0.7,0.1
			c-0.2,0-0.4,0-0.6,0c-0.8,0-1.3-0.1-1.6-0.5c-0.3-0.3-0.5-0.8-0.5-1.6v-5.9h-1.4v-1.1h1.4v-1.8L223.7,148.8z M218.2,155.6
			c-1.2,0-2.1,0.1-2.6,0.4c-0.5,0.3-0.7,0.8-0.7,1.5c0,0.4,0.1,0.8,0.4,1.1s0.6,0.4,1,0.4c0.6,0,1.1-0.2,1.4-0.7
			c0.3-0.5,0.5-1.1,0.5-2V155.6z M215.2,153.7h-1.6v-0.2c0-0.8,0.3-1.4,0.8-1.8s1.3-0.6,2.4-0.6c1,0,1.8,0.2,2.3,0.6s0.7,1.1,0.7,2
			v4.2c0,0.4,0,0.8,0,1.2s0.1,0.8,0.1,1.2h-1.5l-0.1-1.1c-0.3,0.4-0.6,0.7-1.1,0.9c-0.4,0.2-0.8,0.3-1.3,0.3c-0.8,0-1.4-0.2-1.9-0.8
			c-0.5-0.5-0.7-1.2-0.7-2c0-1,0.3-1.8,1-2.3c0.7-0.5,1.7-0.8,3-0.8h0.9v-0.5c0-0.7-0.1-1.2-0.3-1.5s-0.6-0.4-1.1-0.4
			c-0.5,0-1,0.1-1.2,0.4S215.2,153.2,215.2,153.7L215.2,153.7z M209.9,151.3l0.1,1.2c0.2-0.5,0.4-0.8,0.8-1c0.4-0.2,0.9-0.4,1.4-0.4
			c0,0,0.1,0,0.1,0c0.1,0,0.1,0,0.1,0v1.6c-0.1,0-0.1,0-0.2,0c-0.1,0-0.1,0-0.2,0c-0.8,0-1.3,0.2-1.6,0.5c-0.3,0.3-0.5,0.9-0.5,1.7
			v5.4h-1.5v-7.5c0-0.1,0-0.4-0.1-1c0-0.2,0-0.4-0.1-0.5L209.9,151.3L209.9,151.3z M206.8,157.5c-0.1,1-0.4,1.7-0.9,2.2
			c-0.6,0.5-1.3,0.8-2.3,0.8c-1.2,0-2.1-0.4-2.6-1.1s-0.8-2-0.8-3.7c0-1.6,0.3-2.8,0.8-3.5s1.4-1.1,2.6-1.1c1.1,0,1.9,0.3,2.4,0.9
			c0.5,0.6,0.8,1.5,0.8,2.8v1.4h-5v0.5c0,0.9,0.1,1.5,0.4,1.9c0.3,0.4,0.7,0.6,1.4,0.6c0.5,0,0.9-0.1,1.1-0.4
			c0.3-0.3,0.5-0.7,0.6-1.3L206.8,157.5L206.8,157.5z M201.9,155h3.5v-0.8c0-0.7-0.1-1.2-0.4-1.5s-0.7-0.5-1.2-0.5
			c-0.6,0-1.1,0.2-1.4,0.7C202,153.3,201.9,154.1,201.9,155 M192.1,163.7v-10.8c0-0.5,0-0.8,0-1c0-0.2,0-0.4-0.1-0.6h1.6l0.1,0.9
			c0.3-0.4,0.6-0.6,0.9-0.8s0.7-0.3,1.2-0.3c1,0,1.7,0.4,2.2,1.1s0.7,1.9,0.7,3.5c0,1.6-0.2,2.9-0.7,3.6c-0.5,0.8-1.2,1.2-2.2,1.2
			c-0.5,0-0.9-0.1-1.2-0.3s-0.7-0.5-0.9-0.9v4.4H192.1z M193.6,155.9c0,1.2,0.1,2,0.4,2.5c0.3,0.5,0.8,0.8,1.4,0.8
			c0.6,0,1-0.3,1.3-0.8c0.3-0.5,0.4-1.4,0.4-2.6c0-1.3-0.1-2.2-0.4-2.8c-0.3-0.5-0.7-0.8-1.4-0.8c-0.6,0-1,0.3-1.3,0.9
			C193.8,153.7,193.6,154.6,193.6,155.9 M187,152.5c-0.6,0-1.1,0.3-1.4,0.8c-0.3,0.5-0.4,1.4-0.4,2.6c0,1.2,0.1,2.1,0.4,2.6
			s0.7,0.8,1.4,0.8c0.6,0,1.1-0.3,1.4-0.8s0.4-1.4,0.4-2.6c0-1.2-0.1-2.1-0.4-2.6C188.1,152.7,187.6,152.5,187,152.5 M183.6,155.8
			c0-1.6,0.3-2.8,0.8-3.5s1.4-1.1,2.6-1.1c1.2,0,2,0.4,2.6,1.1s0.8,1.9,0.8,3.6s-0.3,2.8-0.8,3.6c-0.5,0.7-1.4,1.1-2.6,1.1
			c-1.2,0-2-0.4-2.6-1.1C183.9,158.7,183.6,157.5,183.6,155.8 M178.7,152.5c-0.6,0-1.1,0.3-1.4,0.8c-0.3,0.5-0.4,1.4-0.4,2.6
			c0,1.2,0.1,2.1,0.4,2.6s0.7,0.8,1.4,0.8c0.6,0,1.1-0.3,1.4-0.8s0.4-1.4,0.4-2.6c0-1.2-0.1-2.1-0.4-2.6
			C179.8,152.7,179.3,152.5,178.7,152.5 M175.3,155.8c0-1.6,0.3-2.8,0.8-3.5s1.4-1.1,2.6-1.1c1.2,0,2,0.4,2.6,1.1s0.8,1.9,0.8,3.6
			s-0.3,2.8-0.8,3.6c-0.5,0.7-1.4,1.1-2.6,1.1c-1.2,0-2-0.4-2.6-1.1C175.6,158.7,175.3,157.5,175.3,155.8 M173.6,156.3v0.3
			c0,1.2-0.3,2.2-1,2.9s-1.5,1-2.7,1c-0.6,0-1.1-0.1-1.5-0.2c-0.5-0.2-0.9-0.4-1.1-0.6c-0.5-0.5-0.8-1.1-1-1.9s-0.3-2.2-0.3-4.1
			c0-1.3,0.1-2.3,0.2-3c0.1-0.7,0.3-1.3,0.6-1.8c0.3-0.5,0.7-0.8,1.3-1.1c0.6-0.3,1.2-0.4,1.9-0.4c1.2,0,2.1,0.3,2.7,1
			c0.6,0.6,0.9,1.6,0.9,2.9h-1.8v-0.2c0-0.8-0.1-1.3-0.5-1.7c-0.3-0.4-0.8-0.6-1.4-0.6c-0.4,0-0.7,0.1-1,0.2
			c-0.3,0.1-0.5,0.4-0.7,0.7c-0.2,0.3-0.3,0.7-0.4,1.3s-0.1,1.7-0.1,3.4c0,2,0.2,3.2,0.5,3.9s0.9,1,1.7,1c0.7,0,1.1-0.2,1.5-0.6
			s0.5-1.1,0.5-2v-0.1L173.6,156.3L173.6,156.3z"/>
	</g>
	<g>
		<defs>
			<rect id="SVGID_00000115479585455006724490000012395197193857935241_" x="-42" y="-180.4" width="595.3" height="540.6"/>
		</defs>
		<clipPath id="SVGID_00000057851898739474220050000016509334097886379172_">
			<use xlink:href="#SVGID_00000115479585455006724490000012395197193857935241_"  style="overflow:visible;"/>
		</clipPath>
		<path style="clip-path:url(#SVGID_00000057851898739474220050000016509334097886379172_);" d="M488.2,155.6
			c-1.2,0-2.1,0.1-2.6,0.4c-0.5,0.3-0.7,0.8-0.7,1.5c0,0.4,0.1,0.8,0.4,1.1c0.3,0.3,0.6,0.4,1,0.4c0.6,0,1.1-0.2,1.4-0.7
			c0.3-0.5,0.5-1.1,0.5-2V155.6z M485.2,153.7h-1.6v-0.2c0-0.8,0.3-1.4,0.8-1.8s1.3-0.6,2.4-0.6c1,0,1.8,0.2,2.3,0.6
			c0.5,0.4,0.7,1.1,0.7,2v4.2c0,0.4,0,0.8,0,1.2c0,0.4,0.1,0.8,0.1,1.2h-1.5l-0.1-1.1c-0.3,0.4-0.7,0.7-1.1,0.9s-0.8,0.3-1.3,0.3
			c-0.8,0-1.4-0.2-1.9-0.8s-0.7-1.2-0.7-2c0-1,0.3-1.8,1-2.3c0.7-0.5,1.7-0.8,3-0.8h0.9v-0.5c0-0.7-0.1-1.2-0.3-1.5
			c-0.2-0.3-0.6-0.4-1.1-0.4c-0.5,0-1,0.1-1.2,0.3C485.3,152.8,485.2,153.2,485.2,153.7L485.2,153.7L485.2,153.7z M479.9,151.3
			l0.1,1.2c0.2-0.5,0.4-0.8,0.8-1c0.4-0.2,0.9-0.4,1.4-0.4c0,0,0.1,0,0.1,0c0.1,0,0.1,0,0.2,0v1.6c0,0-0.1,0-0.2,0s-0.2,0-0.2,0
			c-0.8,0-1.3,0.2-1.7,0.5s-0.5,0.9-0.5,1.7v5.4h-1.5v-7.5c0-0.1,0-0.4-0.1-1c0-0.2,0-0.4,0-0.5L479.9,151.3L479.9,151.3z
			 M470,160.3c0-0.2,0-0.4,0.1-0.7c0-0.2,0-0.6,0-0.9v-11.2h1.5v4.9c0.3-0.4,0.6-0.7,0.9-0.9c0.3-0.2,0.8-0.3,1.2-0.3
			c1,0,1.7,0.4,2.2,1.2c0.5,0.8,0.7,2,0.7,3.6c0,1.6-0.2,2.7-0.7,3.5c-0.5,0.8-1.2,1.1-2.3,1.1c-0.5,0-0.9-0.1-1.2-0.3
			c-0.3-0.2-0.6-0.4-0.8-0.8l-0.2,0.8L470,160.3L470,160.3z M473.5,152.4c-0.6,0-1.1,0.3-1.4,0.8c-0.3,0.5-0.4,1.4-0.4,2.5
			c0,1.3,0.1,2.2,0.4,2.8c0.3,0.6,0.7,0.8,1.3,0.8c0.7,0,1.1-0.2,1.4-0.8s0.4-1.4,0.4-2.8c0-1.2-0.1-2-0.4-2.6
			C474.5,152.7,474.1,152.4,473.5,152.4 M458.7,152.4c0.3-0.4,0.7-0.8,1-1c0.4-0.2,0.8-0.3,1.3-0.3c0.6,0,1,0.1,1.5,0.4
			c0.4,0.3,0.7,0.6,0.9,1.1c0.3-0.5,0.6-0.9,1-1.1c0.4-0.2,0.9-0.4,1.5-0.4c0.7,0,1.3,0.2,1.7,0.6c0.4,0.4,0.6,1,0.6,1.8v6.8h-1.5
			v-5.7c0-0.9-0.1-1.5-0.3-1.8c-0.2-0.3-0.6-0.5-1.1-0.5c-0.6,0-1,0.2-1.3,0.7c-0.3,0.5-0.4,1.2-0.4,2.1v5.2h-1.5v-5.7
			c0-0.9-0.1-1.5-0.3-1.8c-0.2-0.3-0.6-0.5-1.1-0.5c-0.6,0-1,0.2-1.3,0.7c-0.3,0.5-0.4,1.2-0.4,2.1v5.2h-1.5v-7.5c0-0.2,0-0.4,0-0.6
			c0-0.2,0-0.5-0.1-0.8h1.6L458.7,152.4z M453.6,155.6c-1.2,0-2.1,0.1-2.6,0.4c-0.5,0.3-0.7,0.8-0.7,1.5c0,0.4,0.1,0.8,0.4,1.1
			c0.3,0.3,0.6,0.4,1,0.4c0.6,0,1.1-0.2,1.4-0.7c0.3-0.5,0.5-1.1,0.5-2V155.6z M450.6,153.7h-1.6v-0.2c0-0.8,0.3-1.4,0.8-1.8
			s1.3-0.6,2.4-0.6c1,0,1.8,0.2,2.3,0.6s0.7,1.1,0.7,2v4.2c0,0.4,0,0.8,0,1.2s0.1,0.8,0.1,1.2h-1.5l-0.1-1.1
			c-0.3,0.4-0.6,0.7-1.1,0.9c-0.4,0.2-0.8,0.3-1.3,0.3c-0.8,0-1.4-0.2-1.9-0.8c-0.5-0.5-0.7-1.2-0.7-2c0-1,0.3-1.8,1-2.3
			c0.7-0.5,1.7-0.8,3-0.8h0.9v-0.5c0-0.7-0.1-1.2-0.3-1.5c-0.2-0.3-0.6-0.4-1.1-0.4c-0.5,0-1,0.1-1.2,0.3
			C450.7,152.8,450.6,153.2,450.6,153.7L450.6,153.7L450.6,153.7z"/>
	</g>
	<g>
		<defs>
			
				<rect id="SVGID_00000072989969655446082760000015503420352162620563_" x="-43.1" y="-203.6" transform="matrix(0.9913 -0.1317 0.1317 0.9913 -6.5645 34.1039)" width="595.3" height="540.6"/>
		</defs>
		<clipPath id="SVGID_00000080923574858760145160000002637675542238572981_">
			<use xlink:href="#SVGID_00000072989969655446082760000015503420352162620563_"  style="overflow:visible;"/>
		</clipPath>
		
			<rect x="29.4" y="35.2" transform="matrix(0.9913 -0.1317 0.1317 0.9913 -10.7222 11.2344)" style="clip-path:url(#SVGID_00000080923574858760145160000002637675542238572981_);fill-rule:evenodd;clip-rule:evenodd;fill:#EF781A;" width="100.3" height="102.9"/>
	</g>
	<g>
		<defs>
			
				<rect id="SVGID_00000164485892869836832430000000449011921714377090_" x="-46.1" y="-225.8" transform="matrix(0.9659 -0.2588 0.2588 0.9659 -2.9474 66.6106)" width="595.3" height="540.6"/>
		</defs>
		<clipPath id="SVGID_00000093169328143271200290000005766000658252616636_">
			<use xlink:href="#SVGID_00000164485892869836832430000000449011921714377090_"  style="overflow:visible;"/>
		</clipPath>
		
			<rect x="31" y="31.4" transform="matrix(0.9659 -0.2588 0.2588 0.9659 -18.6647 23.8205)" style="clip-path:url(#SVGID_00000093169328143271200290000005766000658252616636_);fill-rule:evenodd;clip-rule:evenodd;fill:#FFFFFF;" width="100.3" height="102.9"/>
	</g>
	<g>
		<defs>
			
				<rect id="SVGID_00000075845977484259136130000011799842149807379871_" x="-46.1" y="-225.8" transform="matrix(0.9659 -0.2588 0.2588 0.9659 -2.9474 66.6106)" width="595.3" height="540.6"/>
		</defs>
		<clipPath id="SVGID_00000158738358962909702570000014056006969836914850_">
			<use xlink:href="#SVGID_00000075845977484259136130000011799842149807379871_"  style="overflow:visible;"/>
		</clipPath>
		
			<rect x="31" y="31.4" transform="matrix(0.9659 -0.2588 0.2588 0.9659 -18.6647 23.8205)" style="clip-path:url(#SVGID_00000158738358962909702570000014056006969836914850_);fill:none;stroke:#EF781A;stroke-width:1.101;stroke-miterlimit:22.9253;" width="100.3" height="102.9"/>
	</g>
	<g>
		<defs>
			<rect id="SVGID_00000175321610696350010220000004861520352913225103_" x="-42" y="-180.4" width="595.3" height="540.6"/>
		</defs>
		<clipPath id="SVGID_00000095309968255236012500000003628985701755873933_">
			<use xlink:href="#SVGID_00000175321610696350010220000004861520352913225103_"  style="overflow:visible;"/>
		</clipPath>
		<path style="clip-path:url(#SVGID_00000095309968255236012500000003628985701755873933_);fill:#EF781A;" d="M484.3,120.3
			c-1,1.5-2.4,2.6-4.1,3.5c-1.7,0.8-3.6,1.2-5.6,1.2c-3.7,0-6.8-1.3-9.3-3.8s-3.7-5.7-3.7-9.4c0-3.8,1.3-7,3.8-9.5
			c2.5-2.6,5.7-3.8,9.5-3.8c2,0,3.8,0.4,5.4,1.2s3,1.9,4.1,3.4v-4.1h3.2v25.4h-3.2V120.3z M484.3,111.4c0-2.7-1-5-2.9-7.1
			c-1.9-2-4.1-3-6.7-3c-2.7,0-5.1,1-7,3s-2.9,4.5-2.9,7.5c0,2.8,1,5.2,2.9,7.2c1.9,2,4.2,2.9,6.9,2.9c2.6,0,4.8-1,6.8-3.1
			C483.4,116.8,484.3,114.3,484.3,111.4 M454.8,124.3h-3.3V98.9h3.1v2.9c0.8-1.1,1.7-2,2.6-2.5c0.9-0.5,2-0.8,3.3-0.8l0,3.5
			c-2,0.2-3.5,0.8-4.4,1.8s-1.3,2.7-1.3,5.1L454.8,124.3L454.8,124.3z M424.8,111.9c0,2.7,1,5.1,2.9,7.1c1.9,2,4.1,3,6.6,3
			c2.7,0,5.1-1,7-3c1.9-2,2.9-4.5,2.9-7.5c0-2.8-1-5.2-2.9-7.1c-1.9-2-4.2-2.9-6.9-2.9s-4.9,1-6.8,3
			C425.7,106.4,424.8,108.9,424.8,111.9 M424.8,90.7v10.6v1.9c1.4-1.6,2.9-2.9,4.5-3.6c1.6-0.8,3.5-1.2,5.5-1.2
			c3.6,0,6.6,1.3,9.1,3.9c2.5,2.6,3.7,5.7,3.7,9.4c0,3.8-1.3,7-3.8,9.5c-2.5,2.6-5.7,3.9-9.5,3.9c-1.9,0-3.6-0.4-5.2-1.1
			c-1.6-0.8-3-1.9-4.3-3.4v3.9h-3.2V90.7L424.8,90.7L424.8,90.7z M397.6,102.9c1-1.5,2.3-2.6,3.9-3.4c1.5-0.8,3.2-1.1,5.1-1.1
			c3.5,0,6,1,7.5,3.1c1.6,2.1,2.4,5.4,2.4,10v12.8h-3.1v-13.5c0-3.4-0.5-5.8-1.7-7.2c-1.1-1.4-2.9-2.1-5.4-2.1
			c-1.5,0-2.7,0.3-3.8,0.9c-1.1,0.6-2,1.4-2.6,2.6c-0.4,0.7-0.7,1.5-0.8,2.4c-0.2,0.9-0.2,2.4-0.2,4.6v12.4h-3.1v-14.2
			c0-2.9-0.6-5.1-1.8-6.5c-1.2-1.4-3-2.1-5.5-2.1c-1.5,0-2.8,0.3-3.9,0.9c-1.1,0.6-2,1.4-2.6,2.6c-0.4,0.7-0.7,1.5-0.9,2.4
			c-0.2,0.9-0.2,2.4-0.2,4.6v12.4h-3.2V98.9h3.2v2.9c1-1.1,2.1-2,3.4-2.5c1.3-0.6,2.8-0.9,4.5-0.9c1.9,0,3.7,0.4,5.3,1.2
			C395.5,100.4,396.7,101.5,397.6,102.9 M369.3,120.3c-1,1.5-2.4,2.6-4.1,3.5c-1.7,0.8-3.6,1.2-5.6,1.2c-3.7,0-6.8-1.3-9.3-3.8
			c-2.5-2.5-3.7-5.7-3.7-9.4c0-3.8,1.3-7,3.8-9.5c2.5-2.6,5.7-3.8,9.5-3.8c2,0,3.8,0.4,5.4,1.2s3,1.9,4.1,3.4v-4.1h3.2v25.4h-3.2
			L369.3,120.3L369.3,120.3z M369.3,111.4c0-2.7-1-5-2.9-7.1c-1.9-2-4.1-3-6.7-3c-2.7,0-5.1,1-7,3c-1.9,2-2.9,4.5-2.9,7.5
			c0,2.8,1,5.2,2.9,7.2c1.9,2,4.2,2.9,6.9,2.9c2.6,0,4.9-1,6.8-3.1C368.3,116.8,369.3,114.3,369.3,111.4 M339.2,90.7h3.3v33.7h-3.3
			V90.7z M309.1,111.6c0-3.7,1.3-6.9,3.8-9.6c2.6-2.6,5.6-4,9.1-4c3.7,0,6.8,1.3,9.4,3.9c2.6,2.6,3.9,5.7,3.9,9.3
			c0,3.8-1.3,7-3.8,9.7c-2.5,2.7-5.6,4-9.2,4c-3.7,0-6.8-1.3-9.3-3.9C310.4,118.5,309.1,115.3,309.1,111.6 M312.5,111.6
			c0,2.9,0.9,5.4,2.8,7.4c1.9,2,4.2,3,7,3c2.7,0,5-1,6.9-3c1.9-2,2.8-4.5,2.8-7.4c0-3-0.9-5.5-2.8-7.4c-1.9-1.9-4.2-2.9-7.1-2.9
			c-2.6,0-4.8,1-6.7,3C313.5,106.2,312.5,108.7,312.5,111.6 M285.4,124.3h-3.3V90.7h3.3v15.1h16V90.7h3.3v33.7h-3.3V109h-16V124.3z"
			/>
	</g>
	<g>
		<defs>
			<rect id="SVGID_00000096058073605185536240000017085175316198777773_" x="-42" y="-180.4" width="595.3" height="540.6"/>
		</defs>
		<clipPath id="SVGID_00000000943967219245074060000015489359633499683996_">
			<use xlink:href="#SVGID_00000096058073605185536240000017085175316198777773_"  style="overflow:visible;"/>
		</clipPath>
		<path style="clip-path:url(#SVGID_00000000943967219245074060000015489359633499683996_);" d="M454.2,72.3h7c0,2.1,1,3.6,2.8,4.7
			c1.8,1.1,4.5,1.6,8,1.6c3.8,0,6.6-0.5,8.5-1.4c1.9-0.9,2.9-2.3,2.9-4.2c0-2.2-3.1-3.9-9.4-5c-0.2,0-0.3-0.1-0.5-0.1
			c-7.7-1.3-12.6-2.7-14.7-4.2c-2.1-1.5-3.2-3.8-3.2-6.8c0-3.2,1.5-5.8,4.4-7.6c2.9-1.8,7-2.7,12.2-2.7c5.4,0,9.5,0.9,12.3,2.6
			c2.8,1.7,4.2,4.3,4.4,7.7h-6.7c-0.3-1.9-1.2-3.4-2.8-4.3c-1.6-0.9-3.9-1.4-7-1.4c-3.3,0-5.9,0.4-7.6,1.4c-1.7,0.9-2.6,2.2-2.6,3.9
			c0,2.2,3.6,3.9,10.9,5.2c0.3,0.1,0.6,0.1,0.8,0.1c0.3,0.1,0.7,0.1,1.3,0.2c5.7,1,9.1,1.9,10.4,2.7c1.5,0.9,2.6,2,3.3,3.2
			c0.7,1.2,1.1,2.7,1.1,4.4c0,3.6-1.5,6.3-4.6,8.2c-3.1,1.9-7.6,2.8-13.5,2.8s-10.4-0.9-13.3-2.8C455.7,78.8,454.2,76,454.2,72.3
			 M413.1,65c0,4,1.2,7.2,3.8,9.8c2.5,2.5,5.8,3.8,9.7,3.8c4,0,7.2-1.3,9.8-3.8c2.5-2.5,3.8-5.8,3.8-9.7c0-4-1.3-7.2-3.8-9.8
			c-2.5-2.6-5.8-3.8-9.7-3.8c-4,0-7.2,1.3-9.7,3.8C414.4,57.8,413.1,61.1,413.1,65 M426.7,46.7c6.4,0,11.4,1.6,15,4.8
			c3.6,3.2,5.4,7.7,5.4,13.5s-1.8,10.3-5.4,13.5c-3.6,3.2-8.6,4.8-15,4.8c-6.4,0-11.4-1.6-15-4.8c-3.6-3.2-5.4-7.7-5.4-13.5
			s1.8-10.3,5.4-13.5C415.2,48.3,420.2,46.7,426.7,46.7 M339.8,53.6c1.4-2.2,3.3-3.9,5.5-5.1c2.2-1.2,4.8-1.7,7.6-1.7
			c3.4,0,6.3,0.6,8.6,1.9c2.4,1.3,4.1,3.2,5.3,5.7c1.9-2.7,4.1-4.6,6.4-5.8c2.3-1.2,5.1-1.8,8.2-1.8c4.7,0,8.4,1.3,11,3.8
			c2.6,2.5,3.9,6,3.9,10.5v21.5h-6.6V62.8c0-3.8-0.8-6.6-2.4-8.5c-1.6-1.9-4-2.9-7.1-2.9c-3.5,0-6.4,1.1-8.6,3.3
			c-2.2,2.2-3.3,5-3.3,8.5v19.3h-6.7V62.8c0-3.8-0.8-6.6-2.4-8.5c-1.6-1.9-4-2.9-7.1-2.9c-3.5,0-6.4,1.1-8.7,3.3
			c-2.2,2.2-3.4,5-3.4,8.5v19.3h-6.8V58.8c0-1.5,0-3.2-0.1-5.1c-0.1-1.9-0.2-4-0.4-6.2h6.7L339.8,53.6z M319.6,47.5v23.7
			c0,1.4,0,3.1,0.1,5.1c0.1,1.9,0.2,4,0.4,6.2h-6.8l-0.4-6c-1.8,2.4-3.9,4.1-6.2,5.1c-2.3,1.1-5.1,1.6-8.3,1.6
			c-5.6,0-9.7-1.3-12.4-4c-2.6-2.6-4-6.8-4-12.4V47.5h6.7v19.6c0,3.9,0.9,6.7,2.7,8.6c1.8,1.9,4.5,2.9,8.2,2.9
			c3.7,0,6.8-1.1,9.3-3.4c2.5-2.2,3.7-5.1,3.7-8.5V47.5L319.6,47.5L319.6,47.5z M236.2,72.3h7c0,2.1,1,3.6,2.8,4.7
			c1.8,1.1,4.5,1.6,8,1.6c3.8,0,6.6-0.5,8.5-1.4c1.9-0.9,2.9-2.3,2.9-4.2c0-2.2-3.1-3.9-9.4-5c-0.2,0-0.3-0.1-0.5-0.1
			c-7.7-1.3-12.6-2.7-14.7-4.2c-2.1-1.5-3.2-3.8-3.2-6.8c0-3.2,1.5-5.8,4.4-7.6c2.9-1.8,7-2.7,12.2-2.7c5.4,0,9.5,0.9,12.3,2.6
			c2.8,1.7,4.2,4.3,4.4,7.7h-6.7c-0.3-1.9-1.2-3.4-2.8-4.3s-3.9-1.4-7-1.4c-3.3,0-5.9,0.4-7.6,1.4c-1.7,0.9-2.6,2.2-2.6,3.9
			c0,2.2,3.6,3.9,10.9,5.2c0.3,0.1,0.6,0.1,0.8,0.1c0.3,0.1,0.7,0.1,1.3,0.2c5.7,1,9.1,1.9,10.4,2.7c1.5,0.9,2.6,2,3.3,3.2
			c0.7,1.2,1.1,2.7,1.1,4.4c0,3.6-1.5,6.3-4.6,8.2c-3.1,1.9-7.6,2.8-13.5,2.8s-10.4-0.9-13.3-2.8C237.7,78.8,236.2,76,236.2,72.3
			 M188.6,82.5V58.8c0-1.5-0.1-3.2-0.1-5.1c-0.1-1.9-0.2-4-0.4-6.2h6.7l0.4,6.1c1.7-2.4,3.8-4.1,6.2-5.2c2.4-1.1,5.4-1.6,9-1.6
			c5.2,0,9.1,1.3,11.7,3.8c2.6,2.5,3.9,6.3,3.9,11.3v20.7h-6.7V62.8c0-3.9-0.9-6.8-2.6-8.7c-1.7-1.8-4.4-2.8-7.9-2.8
			c-4,0-7.3,1.1-9.7,3.2c-2.4,2.1-3.6,5-3.6,8.6v19.3H188.6z M166.6,32.3h7.1v50.2h-7.1V32.3z"/>
	</g>
	<g>
		<defs>
			<rect id="SVGID_00000136384517782270231750000007336169425734186630_" x="-42" y="-180.4" width="595.3" height="540.6"/>
		</defs>
		<clipPath id="SVGID_00000137836592592141205120000001366896915383998598_">
			<use xlink:href="#SVGID_00000136384517782270231750000007336169425734186630_"  style="overflow:visible;"/>
		</clipPath>
		<path style="clip-path:url(#SVGID_00000137836592592141205120000001366896915383998598_);" d="M89.7,80.5c0-5.5-4.4-10-9.9-10
			c-5.5,0-9.9,4.5-9.9,10c0,5.5,4.4,10,9.9,10S89.7,86,89.7,80.5"/>
	</g>
	<g>
		<defs>
			<rect id="SVGID_00000157997255901356791240000015584929961467420333_" x="-42" y="-180.4" width="595.3" height="540.6"/>
		</defs>
		<clipPath id="SVGID_00000090267094057040889820000011461753198625694107_">
			<use xlink:href="#SVGID_00000157997255901356791240000015584929961467420333_"  style="overflow:visible;"/>
		</clipPath>
		<polygon style="clip-path:url(#SVGID_00000090267094057040889820000011461753198625694107_);fill:#EF781A;" points="60.9,81.8 
			14.5,64 14.5,101.1 60.9,85.8 60.9,81.6 		"/>
	</g>
	<g>
		<defs>
			<rect id="SVGID_00000089555807116706983300000003686212863857092538_" x="-42" y="-180.4" width="595.3" height="540.6"/>
		</defs>
		<clipPath id="SVGID_00000075860250281128493610000013928576728594202775_">
			<use xlink:href="#SVGID_00000089555807116706983300000003686212863857092538_"  style="overflow:visible;"/>
		</clipPath>
		<polygon style="clip-path:url(#SVGID_00000075860250281128493610000013928576728594202775_);" points="60.9,75.5 60.9,81.6 
			66.2,68 10.8,46.8 5.5,60.6 14.5,64 14.5,58.2 		"/>
	</g>
	<g>
		<defs>
			<rect id="SVGID_00000173138279696013413730000016071507350080844713_" x="-42" y="-180.4" width="595.3" height="540.6"/>
		</defs>
		<clipPath id="SVGID_00000117646589032639066350000003311262764295827374_">
			<use xlink:href="#SVGID_00000173138279696013413730000016071507350080844713_"  style="overflow:visible;"/>
		</clipPath>
		<polygon style="clip-path:url(#SVGID_00000117646589032639066350000003311262764295827374_);fill:#EF781A;" points="75,60.3 
			92.8,13.9 55.7,13.9 71,60.3 75.1,60.3 		"/>
	</g>
	<g>
		<defs>
			<rect id="SVGID_00000083080747178345930260000013642020646417926552_" x="-42" y="-180.4" width="595.3" height="540.6"/>
		</defs>
		<clipPath id="SVGID_00000077290481085820188210000016804435392603507641_">
			<use xlink:href="#SVGID_00000083080747178345930260000013642020646417926552_"  style="overflow:visible;"/>
		</clipPath>
		<polygon style="clip-path:url(#SVGID_00000077290481085820188210000016804435392603507641_);" points="81.3,60.3 75.1,60.3 
			88.8,65.5 110,10.2 96.2,4.9 92.8,13.9 98.5,13.9 		"/>
	</g>
	<g>
		<defs>
			<rect id="SVGID_00000047743531704045292060000017463342773801512888_" x="-42" y="-180.4" width="595.3" height="540.6"/>
		</defs>
		<clipPath id="SVGID_00000165919006221941726480000003609756820341456548_">
			<use xlink:href="#SVGID_00000047743531704045292060000017463342773801512888_"  style="overflow:visible;"/>
		</clipPath>
		<polygon style="clip-path:url(#SVGID_00000165919006221941726480000003609756820341456548_);fill:#EF781A;" points="101.7,66.1 
			148.1,83.9 148.1,46.8 101.6,62.1 101.6,66.3 		"/>
	</g>
	<g>
		<defs>
			<rect id="SVGID_00000117660387353358060240000007308254601704060819_" x="-42" y="-180.4" width="595.3" height="540.6"/>
		</defs>
		<clipPath id="SVGID_00000054981364715514151290000001471194867543375232_">
			<use xlink:href="#SVGID_00000117660387353358060240000007308254601704060819_"  style="overflow:visible;"/>
		</clipPath>
		<polygon style="clip-path:url(#SVGID_00000054981364715514151290000001471194867543375232_);" points="101.6,72.4 101.6,66.3 
			96.4,79.9 151.8,101.1 157,87.3 148.1,83.9 148.1,89.6 		"/>
	</g>
	<g>
		<defs>
			<rect id="SVGID_00000171707645790687220140000002974933809995358397_" x="-42" y="-180.4" width="595.3" height="540.6"/>
		</defs>
		<clipPath id="SVGID_00000063598186027571830470000008673779231825272459_">
			<use xlink:href="#SVGID_00000171707645790687220140000002974933809995358397_"  style="overflow:visible;"/>
		</clipPath>
		<polygon style="clip-path:url(#SVGID_00000063598186027571830470000008673779231825272459_);fill:#EF781A;" points="90.7,102.6 
			72.9,149 110,149 94.7,102.5 90.5,102.5 		"/>
	</g>
	<g>
		<defs>
			<rect id="SVGID_00000095326897841064628360000017393126081995322003_" x="-42" y="-180.4" width="595.3" height="540.6"/>
		</defs>
		<clipPath id="SVGID_00000094614873587730168520000016829691603511692427_">
			<use xlink:href="#SVGID_00000095326897841064628360000017393126081995322003_"  style="overflow:visible;"/>
		</clipPath>
		<polygon style="clip-path:url(#SVGID_00000094614873587730168520000016829691603511692427_);" points="84.3,102.5 90.5,102.5 
			76.9,97.3 55.7,152.7 69.4,158 72.9,149 67.1,149 		"/>
	</g>
	<g>
		<defs>
			<rect id="SVGID_00000080169424494117087300000014083471819043283600_" x="-42" y="-180.4" width="595.3" height="540.6"/>
		</defs>
		<clipPath id="SVGID_00000021827259661210968640000010514675721324722830_">
			<use xlink:href="#SVGID_00000080169424494117087300000014083471819043283600_"  style="overflow:visible;"/>
		</clipPath>
		
			<rect x="164.9" y="133.6" style="clip-path:url(#SVGID_00000021827259661210968640000010514675721324722830_);" width="325.2" height="2"/>
	</g>
</g>
</svg>
